<svg xmlns="http://www.w3.org/2000/svg" width="76" height="78" viewBox="0 0 76 78" fill="none">
<circle cx="38" cy="39" r="38" fill="white"/>
<path d="M10.7593 14.6245H20.3677L37.5842 31.9015L54.8006 14.6245H64.4091V62H54.8006V27.9308L37.5842 44.5108L20.3677 27.9308V62H10.7593V14.6245Z" fill="black"/>
<path d="M32.33 14.6245H42.5143L65.4292 62H55.3357L51.5469 54.0283H23.8733L20.2057 62H10.082L32.33 14.6245ZM47.7581 46.1172L37.5131 24.5967L27.5409 46.1172H47.7581Z" fill="black"/>
<path d="M27.6237 46.01H47.6953L53.0662 57.19H22.3952L27.6237 46.01Z" fill="white"/>
<rect x="27.5226" y="20.6774" width="1.72434" height="45.2836" transform="rotate(24.4098 27.5226 20.6774)" fill="white"/>
<rect x="51.5292" y="31.2304" width="1.72434" height="10.9426" transform="rotate(46.2481 51.5292 31.2304)" fill="white"/>
<rect x="45.7832" y="21.2151" width="1.72434" height="10.3394" transform="rotate(44.7507 45.7832 21.2151)" fill="white"/>
<rect x="35.4597" y="29.0556" width="1.72434" height="43.4252" transform="rotate(24.5413 35.4597 29.0556)" fill="white"/>
<rect x="65" y="52" width="3" height="10" fill="white"/>
<rect x="8" y="54" width="2" height="8" fill="white"/>
<rect x="44.5616" y="56.0687" width="7.04601" height="11.3677" transform="rotate(-25.876 44.5616 56.0687)" fill="white"/>
<rect x="64.4" y="51" width="3" height="11" fill="white"/>
</svg>